<svg xmlns="http://www.w3.org/2000/svg" viewBox="0 0 1440 320">
   <path fill="#0099ff" fill-opacity="0.7" d="M0,128L17.1,117.3C34.3,107,69,85,103,90.7C137.1,96,171,128,206,144C240,160,274,160,309,133.3C342.9,107,377,53,411,32C445.7,11,480,21,514,69.3C548.6,117,583,203,617,218.7C651.4,235,686,181,720,154.7C754.3,128,789,128,823,133.3C857.1,139,891,149,926,176C960,203,994,245,1029,234.7C1062.9,224,1097,160,1131,133.3C1165.7,107,1200,117,1234,144C1268.6,171,1303,213,1337,213.3C1371.4,213,1406,171,1423,149.3L1440,128L1440,320L1422.9,320C1405.7,320,1371,320,1337,320C1302.9,320,1269,320,1234,320C1200,320,1166,320,1131,320C1097.1,320,1063,320,1029,320C994.3,320,960,320,926,320C891.4,320,857,320,823,320C788.6,320,754,320,720,320C685.7,320,651,320,617,320C582.9,320,549,320,514,320C480,320,446,320,411,320C377.1,320,343,320,309,320C274.3,320,240,320,206,320C171.4,320,137,320,103,320C68.6,320,34,320,17,320L0,320Z">
   </path>
</svg>